<svg height='100px' width='100px'  fill="#010202" xmlns:x="http://ns.adobe.com/Extensibility/1.0/" xmlns:i="http://ns.adobe.com/AdobeIllustrator/10.0/" xmlns:graph="http://ns.adobe.com/Graphs/1.0/" xmlns="http://www.w3.org/2000/svg" xmlns:xlink="http://www.w3.org/1999/xlink" version="1.1" x="0px" y="0px" viewBox="0 0 100 100" style="enable-background:new 0 0 100 100;" xml:space="preserve"><g><g i:extraneous="self"><g><path d="M62,34.1H38V24h4.7v5h4.7v-5h5.3v5h4.7v-5H62V34.1z M74,50c0,13.3-10.7,24-24,24c-13.3,0-24-10.7-24-24     c0-7.3,3.3-13.8,8.4-18.2v5.1c-3,3.5-4.8,8.1-4.8,13.1c0,6.8,3.3,12.7,8.4,16.5V35.9h24v30.6c5.1-3.7,8.4-9.7,8.4-16.5     c0-5-1.8-9.6-4.8-13.1v-5.1C70.7,36.2,74,42.7,74,50z M53,43.7h-6v6h6V43.7z"></path></g></g></g></svg>